<?xml version="1.0" encoding="UTF-8"?>
<svg width="700pt" height="700pt" version="1.1" viewBox="0 0 700 700" xmlns="http://www.w3.org/2000/svg">
    <g>
        <path d="m507.5 525h-315c-23.207 0-45.461-9.2188-61.871-25.629s-25.629-38.664-25.629-61.871v-315c0-23.207 9.2188-45.461 25.629-61.871s38.664-25.629 61.871-25.629h315c23.207 0 45.461 9.2188 61.871 25.629s25.629 38.664 25.629 61.871v315c0 23.207-9.2188 45.461-25.629 61.871s-38.664 25.629-61.871 25.629zm-315-455c-13.926 0-27.277 5.5312-37.125 15.375-9.8438 9.8477-15.375 23.199-15.375 37.125v315c0 13.926 5.5312 27.277 15.375 37.125 9.8477 9.8438 23.199 15.375 37.125 15.375h315c13.926 0 27.277-5.5312 37.125-15.375 9.8438-9.8477 15.375-23.199 15.375-37.125v-315c0-13.926-5.5312-27.277-15.375-37.125-9.8477-9.8438-23.199-15.375-37.125-15.375z"/>
        <path d="m210 525c-4.6406 0-9.0938-1.8438-12.375-5.125s-5.125-7.7344-5.125-12.375v-455c0-6.2539 3.3359-12.031 8.75-15.156s12.086-3.125 17.5 0 8.75 8.9023 8.75 15.156v455c0 4.6406-1.8438 9.0938-5.125 12.375s-7.7344 5.125-12.375 5.125z"/>
        <path d="m490 525c-4.6406 0-9.0938-1.8438-12.375-5.125s-5.125-7.7344-5.125-12.375v-455c0-6.2539 3.3359-12.031 8.75-15.156s12.086-3.125 17.5 0 8.75 8.9023 8.75 15.156v455c0 4.6406-1.8438 9.0938-5.125 12.375s-7.7344 5.125-12.375 5.125z"/>
        <path d="m210 140h-87.5c-6.2539 0-12.031-3.3359-15.156-8.75s-3.125-12.086 0-17.5 8.9023-8.75 15.156-8.75h87.5c6.2539 0 12.031 3.3359 15.156 8.75s3.125 12.086 0 17.5-8.9023 8.75-15.156 8.75z"/>
        <path d="m210 297.5h-87.5c-6.2539 0-12.031-3.3359-15.156-8.75s-3.125-12.086 0-17.5 8.9023-8.75 15.156-8.75h87.5c6.2539 0 12.031 3.3359 15.156 8.75s3.125 12.086 0 17.5-8.9023 8.75-15.156 8.75z"/>
        <path d="m210 455h-87.5c-6.2539 0-12.031-3.3359-15.156-8.75s-3.125-12.086 0-17.5 8.9023-8.75 15.156-8.75h87.5c6.2539 0 12.031 3.3359 15.156 8.75s3.125 12.086 0 17.5-8.9023 8.75-15.156 8.75z"/>
        <path d="m577.5 140h-87.5c-6.2539 0-12.031-3.3359-15.156-8.75s-3.125-12.086 0-17.5 8.9023-8.75 15.156-8.75h87.5c6.2539 0 12.031 3.3359 15.156 8.75s3.125 12.086 0 17.5-8.9023 8.75-15.156 8.75z"/>
        <path d="m577.5 297.5h-87.5c-6.2539 0-12.031-3.3359-15.156-8.75s-3.125-12.086 0-17.5 8.9023-8.75 15.156-8.75h87.5c6.2539 0 12.031 3.3359 15.156 8.75s3.125 12.086 0 17.5-8.9023 8.75-15.156 8.75z"/>
        <path d="m577.5 455h-87.5c-6.2539 0-12.031-3.3359-15.156-8.75s-3.125-12.086 0-17.5 8.9023-8.75 15.156-8.75h87.5c6.2539 0 12.031 3.3359 15.156 8.75s3.125 12.086 0 17.5-8.9023 8.75-15.156 8.75z"/>
        <path d="m271.6 382.73c-2.8164-1.4062-5.168-3.5859-6.7812-6.2812-1.6094-2.6992-2.418-5.8047-2.3203-8.9453v-175c-0.007812-4.1875 1.4844-8.2422 4.2109-11.422 2.7266-3.1797 6.5-5.2773 10.641-5.9102 4.1406-0.63672 8.3711 0.23828 11.922 2.457l140 87.5c5.1484 3.1914 8.2812 8.8164 8.2812 14.875s-3.1328 11.684-8.2812 14.875l-140 87.5c-2.6484 1.6211-5.6836 2.5078-8.7891 2.5703s-6.1719-0.70312-8.8828-2.2188z"/>
        <path d="m140 267.93c6.125 110.95 147.35 162.57 243.77 162.57 96.426 0 168.18-2.2734 176.23-100.98l9.8008 169.23h-439.6z"/>
    </g>
</svg>
